<?xml version="1.0" encoding="UTF-8"?>
<!DOCTYPE svg PUBLIC "-//W3C//DTD SVG 1.1//EN" "http://www.w3.org/Graphics/SVG/1.1/DTD/svg11.dtd">
<svg xmlns="http://www.w3.org/2000/svg" version="1.1" width="207px" height="50px" style="shape-rendering:geometricPrecision; text-rendering:geometricPrecision; image-rendering:optimizeQuality; fill-rule:evenodd; clip-rule:evenodd" xmlns:xlink="http://www.w3.org/1999/xlink">
<g><path style="opacity:0.777" fill="#5b9c36" d="M 16.5,21.5 C 15.6618,21.8417 15.3284,22.5084 15.5,23.5C 14.6618,23.8417 14.3284,24.5084 14.5,25.5C 13.6618,25.8417 13.3284,26.5084 13.5,27.5C 12.6618,27.8417 12.3284,28.5084 12.5,29.5C 11.5326,30.8062 10.1993,31.4729 8.5,31.5C 11.4853,21.8568 15.3187,12.5235 20,3.5C 21.3876,2.44636 22.8876,2.27969 24.5,3C 21.4108,9.00895 18.7441,15.1756 16.5,21.5 Z"/></g>
<g><path style="opacity:0.782" fill="#5b9a36" d="M 24.5,15.5 C 23.6618,15.8417 23.3284,16.5084 23.5,17.5C 22.3263,18.5137 21.6596,19.847 21.5,21.5C 20.6618,21.8417 20.3284,22.5084 20.5,23.5C 19.6618,23.8417 19.3284,24.5084 19.5,25.5C 18.8333,25.5 18.5,25.8333 18.5,26.5C 17.6618,26.8417 17.3284,27.5084 17.5,28.5C 16.6618,28.8417 16.3284,29.5084 16.5,30.5C 14.544,32.1751 13.2107,31.8418 12.5,29.5C 13.3382,29.1583 13.6716,28.4916 13.5,27.5C 14.3382,27.1583 14.6716,26.4916 14.5,25.5C 15.3382,25.1583 15.6716,24.4916 15.5,23.5C 16.3382,23.1583 16.6716,22.4916 16.5,21.5C 19.932,15.4749 23.2653,9.30824 26.5,3C 27.9437,2.21948 29.277,2.38615 30.5,3.5C 27.9617,7.24322 25.9617,11.2432 24.5,15.5 Z"/></g>
<g><path style="opacity:0.77" fill="#5b9c35" d="M 32.5,11.5 C 31.0937,11.9731 30.427,12.9731 30.5,14.5C 29.6618,14.8417 29.3284,15.5084 29.5,16.5C 28.6618,16.8417 28.3284,17.5084 28.5,18.5C 27.1805,19.9418 25.5138,20.6085 23.5,20.5C 23.5,19.5 23.5,18.5 23.5,17.5C 24.3382,17.1583 24.6716,16.4916 24.5,15.5C 27.2671,11.4828 29.9337,7.31611 32.5,3C 33.9437,2.21948 35.277,2.38615 36.5,3.5C 34.6284,5.90994 33.295,8.5766 32.5,11.5 Z"/></g>
<g><path style="opacity:0.778" fill="#5b9d36" d="M 28.5,18.5 C 29.3382,18.1583 29.6716,17.4916 29.5,16.5C 30.3382,16.1583 30.6716,15.4916 30.5,14.5C 31.9063,14.0269 32.573,13.0269 32.5,11.5C 34.6009,8.82107 36.6009,5.98773 38.5,3C 39.1667,2.83333 39.8333,2.66667 40.5,2.5C 41.9317,2.73321 42.4317,3.39988 42,4.5C 38.6839,10.2989 34.8505,15.6322 30.5,20.5C 29.2867,20.2528 28.62,19.5862 28.5,18.5 Z"/></g>
<g><path style="opacity:0.719" fill="#fefffe" d="M 154.5,15.5 C 156.167,15.5 157.833,15.5 159.5,15.5C 159.5,22.1667 159.5,28.8333 159.5,35.5C 157.833,35.5 156.167,35.5 154.5,35.5C 154.5,28.8333 154.5,22.1667 154.5,15.5 Z"/></g>
<g><path style="opacity:0.843" fill="#fefffe" d="M 55.5,16.5 C 59.1817,16.3347 62.8484,16.5014 66.5,17C 69.7366,19.4187 70.07,22.0854 67.5,25C 71.6625,28.8292 71.3292,32.1625 66.5,35C 62.8484,35.4986 59.1817,35.6653 55.5,35.5C 55.5,29.1667 55.5,22.8333 55.5,16.5 Z M 60.5,19.5 C 65.1202,20.5559 65.4536,22.2226 61.5,24.5C 60.5481,22.9547 60.2148,21.288 60.5,19.5 Z M 60.5,27.5 C 62.7144,27.2907 64.381,28.124 65.5,30C 64.381,31.876 62.7144,32.7093 60.5,32.5C 60.5,30.8333 60.5,29.1667 60.5,27.5 Z"/></g>
<g><path style="opacity:0.816" fill="#fefffe" d="M 73.5,16.5 C 75.924,16.1924 78.2573,16.5258 80.5,17.5C 81.523,21.0774 83.023,24.4107 85,27.5C 86.3333,24.1667 87.6667,20.8333 89,17.5C 91.0639,16.4086 93.2305,16.2419 95.5,17C 96.4764,23.0758 96.8097,29.2424 96.5,35.5C 94.8333,35.5 93.1667,35.5 91.5,35.5C 91.6655,31.4862 91.4988,27.4862 91,23.5C 86.6667,39.5 82.3333,39.5 78,23.5C 77.5012,27.4862 77.3345,31.4862 77.5,35.5C 76.1667,35.5 74.8333,35.5 73.5,35.5C 73.5,29.1667 73.5,22.8333 73.5,16.5 Z"/></g>
<g><path style="opacity:0.818" fill="#fefffe" d="M 99.5,16.5 C 103.182,16.3347 106.848,16.5014 110.5,17C 115.818,24.512 113.818,28.3454 104.5,28.5C 104.5,30.8333 104.5,33.1667 104.5,35.5C 102.833,35.5 101.167,35.5 99.5,35.5C 99.5,29.1667 99.5,22.8333 99.5,16.5 Z M 104.5,19.5 C 109.197,20.8743 109.531,22.8743 105.5,25.5C 104.534,23.604 104.201,21.604 104.5,19.5 Z"/></g>
<g><path style="opacity:0.798" fill="#fefffe" d="M 125.5,16.5 C 128.5,16.5 131.5,16.5 134.5,16.5C 134.5,17.8333 134.5,19.1667 134.5,20.5C 132.94,20.4809 131.44,20.1476 130,19.5C 128.72,19.6135 127.887,20.2801 127.5,21.5C 129.792,23.437 132.292,25.1037 135,26.5C 135.821,34.3318 132.321,37.1651 124.5,35C 122.893,33.951 122.227,32.451 122.5,30.5C 124.677,30.5861 126.677,31.2528 128.5,32.5C 129.72,32.1131 130.387,31.2798 130.5,30C 127.671,28.1757 125.171,26.009 123,23.5C 122.333,22.1667 122.333,20.8333 123,19.5C 124.045,18.6266 124.878,17.6266 125.5,16.5 Z"/></g>
<g><path style="opacity:0.801" fill="#fefffe" d="M 141.5,21.5 C 147.992,19.7231 151.659,22.0564 152.5,28.5C 152.444,31.1113 151.444,33.278 149.5,35C 140.736,37.5599 136.902,34.3932 138,25.5C 138.69,23.6498 139.856,22.3164 141.5,21.5 Z M 144.5,24.5 C 146.89,24.6848 147.89,26.0182 147.5,28.5C 145.833,33.8333 144.167,33.8333 142.5,28.5C 142.803,26.8857 143.47,25.5523 144.5,24.5 Z"/></g>
<g><path style="opacity:0.866" fill="#fefffe" d="M 164.5,21.5 C 167.579,21.2601 170.579,21.5934 173.5,22.5C 174.492,26.7828 174.826,31.1161 174.5,35.5C 170.818,35.6653 167.152,35.4986 163.5,35C 161.212,28.6075 163.545,25.6075 170.5,26C 169.892,25.1301 169.059,24.6301 168,24.5C 166.234,25.2335 164.401,25.5668 162.5,25.5C 162.527,23.8007 163.194,22.4674 164.5,21.5 Z M 167.5,29.5 C 171.3,29.8194 171.466,30.8194 168,32.5C 166.272,31.6477 166.105,30.6477 167.5,29.5 Z"/></g>
<g><path style="opacity:0.84" fill="#fefffe" d="M 178.5,21.5 C 181.5,21.5 184.5,21.5 187.5,21.5C 187.785,23.288 187.452,24.9547 186.5,26.5C 185.094,25.3318 183.928,25.6652 183,27.5C 182.503,30.146 182.336,32.8127 182.5,35.5C 181.167,35.5 179.833,35.5 178.5,35.5C 178.5,30.8333 178.5,26.1667 178.5,21.5 Z"/></g>
<g><path style="opacity:0.845" fill="#f8bb25" d="M 21.5,21.5 C 23.451,21.2267 24.951,21.8934 26,23.5C 27.6667,20.8333 29.3333,20.8333 31,23.5C 32.6667,20.8333 34.3333,20.8333 36,23.5C 37.1531,21.503 38.6531,21.1696 40.5,22.5C 33.8088,31.5184 27.1422,40.5184 20.5,49.5C 15.8333,49.5 11.1667,49.5 6.5,49.5C 10.1009,43.2978 13.4342,36.9644 16.5,30.5C 17.3382,30.1583 17.6716,29.4916 17.5,28.5C 18.3382,28.1583 18.6716,27.4916 18.5,26.5C 19.1667,26.5 19.5,26.1667 19.5,25.5C 20.3382,25.1583 20.6716,24.4916 20.5,23.5C 21.3382,23.1583 21.6716,22.4916 21.5,21.5 Z"/></g>
</svg>
